<svg xmlns="http://www.w3.org/2000/svg"
    xmlns:xlink="http://www.w3.org/1999/xlink" width="34" height="34" viewBox="0 0 34 34">
    <defs>
        <path id="dribbble" alt="dribble icon" d="M1169 63.132c0 9.315-7.489 16.868-16.726 16.868-9.237 0-16.725-7.553-16.725-16.868 0-9.317 7.488-16.868 16.725-16.868 9.237 0 16.726 7.551 16.726 16.868zm-4.181 0c0-6.988-5.617-12.651-12.545-12.651s-12.544 5.663-12.544 12.65 5.616 12.652 12.544 12.652c6.928 0 12.545-5.665 12.545-12.651zm-5.348 1.492a7.498 7.498 0 0 1-1.105 2.651c-.264.391-.566.76-.897 1.096a7.353 7.353 0 0 1-2.335 1.587 7.3 7.3 0 0 1-6.969-.684 7.489 7.489 0 0 1-1.086-.903 7.627 7.627 0 0 1-.896-1.096 7.399 7.399 0 0 1-1.254-4.144 7.463 7.463 0 0 1 1.254-4.143 7.517 7.517 0 0 1 1.983-2 7.367 7.367 0 0 1 2.629-1.115 7.332 7.332 0 0 1 4.34.432 7.372 7.372 0 0 1 2.334 1.588c.331.335.633.703.897 1.095.264.397.492.82.677 1.26a7.528 7.528 0 0 1 .577 2.884 7.47 7.47 0 0 1-.15 1.492zm-3.715 3.618a6.192 6.192 0 0 0 2.543-3.861c.018-.094.027-.19.042-.284a5.82 5.82 0 0 0-.235-.064 8.885 8.885 0 0 0-.693-.143h-.004a8.934 8.934 0 0 0-2.852-.026 28.293 28.293 0 0 1 1.199 4.378zm-5.876.604c.372.158.76.28 1.154.361a6.227 6.227 0 0 0 2.479 0 6.08 6.08 0 0 0 1.154-.361l.035-.017a26.902 26.902 0 0 0-1.32-4.675l-.04.013c-.374.131-.717.28-1.042.434-.046.022-.095.043-.14.066-.302.149-.58.306-.84.468l-.143.091c-.251.163-.485.328-.696.495-.034.026-.064.052-.097.079a8.094 8.094 0 0 0-1.064 1.02l-.06.068a7.508 7.508 0 0 0-.645.88 4.858 4.858 0 0 0-.138.235c.118.093.236.187.359.27.33.224.68.417 1.044.573zm-3.745-5.914c-.002.067-.01.133-.01.2a6.175 6.175 0 0 0 1.05 3.467c.151.223.334.421.511.624.042-.067.105-.163.178-.27l.036-.054c.078-.112.172-.24.28-.382l.063-.082c.116-.147.244-.304.391-.472l.068-.075c.16-.178.331-.362.526-.55.19-.185.4-.37.623-.555.035-.028.066-.056.1-.084a9.524 9.524 0 0 1 1.659-1.066l.132-.06c.307-.146.626-.281.967-.393.08-.026.161-.046.242-.069a21.431 21.431 0 0 0-.507-1.083c-2.538.765-4.988.888-5.977.902-.141.002-.255.003-.332.002zm3.541-5.415a6.133 6.133 0 0 0-.84.472c-.325.222-.63.476-.909.757a6.155 6.155 0 0 0-1.663 3.081c.065 0 .155 0 .266-.003h.008c.225-.005.538-.016.92-.041h.002a23.98 23.98 0 0 0 3.888-.583c.191-.045.384-.094.578-.146a38.529 38.529 0 0 0-2.25-3.537zm6.036.472a6.114 6.114 0 0 0-4.678-.934c-.052.011-.103.03-.154.041.3.41 1.317 1.832 2.255 3.569.245-.093.475-.192.689-.292l.012-.006c1.506-.712 2.26-1.566 2.492-1.866-.2-.177-.396-.362-.616-.512zm2.587 3.892a6.259 6.259 0 0 0-.926-2.217c-.102-.153-.233-.284-.35-.427-.251.318-1.08 1.226-2.65 2.024l-.05.024a10.34 10.34 0 0 1-.704.322c.148.305.291.614.423.927.047.111.086.218.13.328.224-.028.446-.048.666-.061l.111-.006c.189-.01.373-.016.556-.018l.093-.001c.209 0 .413.004.61.012l.042.002a15.743 15.743 0 0 1 1.532.145l.091.014c.096.015.182.028.259.042l.064.01c.09.016.166.03.223.042a6.451 6.451 0 0 0-.12-1.162z" />
    </defs>
    <g>
        <g transform="translate(-1135 -46)">
            <use fill="#dadada" xlink:href="#dribbble" />
        </g>
    </g>
</svg>